<?xml version="1.0" standalone="no"?>
<!DOCTYPE svg PUBLIC "-//W3C//DTD SVG 20010904//EN"
 "http://www.w3.org/TR/2001/REC-SVG-20010904/DTD/svg10.dtd">
<svg version="1.0" xmlns="http://www.w3.org/2000/svg"
 width="200.000000pt" height="200.000000pt" viewBox="0 0 200.000000 200.000000"
 preserveAspectRatio="xMidYMid meet">
<metadata>
Created by potrace 1.14, written by Peter Selinger 2001-2017
</metadata>
<g transform="translate(0.000000,200.000000) scale(0.100000,-0.100000)"
fill="#000000" stroke="none">
<path d="M158 1899 c-10 -5 -18 -20 -18 -33 0 -42 27 -53 145 -61 110 -7 158
-21 168 -50 6 -13 -13 -15 -148 -15 -97 0 -155 -4 -155 -10 0 -6 60 -10 160
-10 l160 0 0 -30 0 -30 -160 0 c-100 0 -160 -4 -160 -10 0 -6 60 -10 160 -10
l160 0 0 -30 0 -30 -160 0 c-100 0 -160 -4 -160 -10 0 -6 60 -10 160 -10 l160
0 0 -30 0 -30 -160 0 c-100 0 -160 -4 -160 -10 0 -6 60 -10 160 -10 l160 0 0
-30 0 -30 -161 0 c-124 0 -160 -3 -157 -12 4 -10 47 -14 161 -16 148 -2 157
-4 157 -22 0 -18 -9 -20 -157 -22 -114 -2 -157 -6 -161 -15 -3 -10 33 -13 157
-13 l161 0 0 -25 0 -24 -157 -3 c-114 -2 -157 -6 -161 -15 -3 -10 33 -13 157
-13 l161 0 0 -30 0 -30 -160 0 c-100 0 -160 -4 -160 -10 0 -6 60 -10 160 -10
l160 0 0 -25 0 -24 -157 -3 c-114 -2 -157 -6 -161 -15 -3 -10 32 -13 153 -13
166 0 181 -6 119 -42 -20 -12 -64 -19 -139 -24 -124 -8 -145 -15 -145 -49 0
-45 32 -55 176 -55 114 0 133 -2 147 -18 15 -17 17 -58 17 -390 0 -369 0 -371
22 -392 28 -26 59 -25 86 3 22 23 45 165 74 442 33 329 1 964 -64 1269 -18 85
-20 86 -235 86 -109 0 -195 -5 -205 -11z"/>
<path d="M991 1881 c-58 -81 -65 -159 -26 -285 13 -45 74 -222 134 -394 l109
-313 -34 -74 c-36 -78 -64 -190 -64 -256 0 -21 -1 -39 -3 -39 -1 0 -20 9 -42
20 -48 24 -130 26 -183 4 -85 -35 -142 -120 -142 -214 0 -128 94 -220 222
-220 95 1 181 59 214 147 13 34 15 58 9 115 -5 40 -8 105 -8 145 0 63 4 79 29
119 16 26 46 61 67 77 l37 31 28 -21 c47 -35 82 -94 94 -161 10 -54 9 -77 -6
-152 -17 -83 -17 -92 -2 -144 37 -125 163 -197 283 -161 101 30 157 106 157
210 -1 69 -19 112 -72 167 -64 67 -179 86 -261 43 l-31 -16 0 44 c0 59 -42
221 -73 283 -13 27 -109 276 -212 554 -103 278 -191 509 -195 513 -4 5 -17 -5
-29 -22z m324 -961 c0 -29 -38 -41 -48 -16 -10 26 4 47 27 44 15 -2 21 -10 21
-28z m-291 -454 c109 -46 110 -203 0 -256 -108 -53 -217 28 -195 145 18 95
109 147 195 111z m687 -29 c65 -43 88 -131 49 -194 -48 -79 -161 -83 -229 -9
-32 34 -41 124 -17 161 42 64 134 84 197 42z"/>
<path d="M1467 1548 c-75 -194 -137 -357 -137 -363 0 -15 84 -235 90 -235 5 0
185 465 240 620 46 131 38 230 -23 296 l-32 34 -138 -352z"/>
</g>
</svg>
